<mxfile host="app.diagrams.net" modified="2024-02-23T04:33:09.554Z" agent="Mozilla/5.0 (Windows NT 10.0; Win64; x64) AppleWebKit/537.36 (KHTML, like Gecko) Chrome/121.0.0.0 Safari/537.36 Edg/121.0.0.0" etag="OxLbP2ozixurx-qFsMRO" version="23.0.2" type="github">
  <diagram id="prtHgNgQTEPvFCAcTncT" name="Page-1">
    <mxGraphModel dx="744" dy="1135" grid="1" gridSize="10" guides="1" tooltips="1" connect="1" arrows="1" fold="1" page="1" pageScale="1" pageWidth="827" pageHeight="1169" math="0" shadow="0">
      <root>
        <mxCell id="0" />
        <mxCell id="1" parent="0" />
        <mxCell id="dNxyNK7c78bLwvsdeMH5-19" value="CUDARaster" style="swimlane;html=1;childLayout=stackLayout;resizeParent=1;resizeParentMax=0;horizontal=0;startSize=20;horizontalStack=0;" parent="1" vertex="1">
          <mxGeometry x="210" y="330" width="520" height="300" as="geometry" />
        </mxCell>
        <mxCell id="dNxyNK7c78bLwvsdeMH5-20" value="应用层" style="swimlane;html=1;startSize=71;horizontal=0;" parent="dNxyNK7c78bLwvsdeMH5-19" vertex="1">
          <mxGeometry x="20" width="500" height="70" as="geometry" />
        </mxCell>
        <mxCell id="dK3k0ItTwGgipWkgGngL-8" value="APP" style="rounded=0;whiteSpace=wrap;html=1;shadow=1;" vertex="1" parent="dNxyNK7c78bLwvsdeMH5-20">
          <mxGeometry x="160" y="15" width="70" height="40" as="geometry" />
        </mxCell>
        <mxCell id="dK3k0ItTwGgipWkgGngL-10" value="Benchmark" style="rounded=0;whiteSpace=wrap;html=1;shadow=1;" vertex="1" parent="dNxyNK7c78bLwvsdeMH5-20">
          <mxGeometry x="320" y="15" width="70" height="40" as="geometry" />
        </mxCell>
        <mxCell id="dNxyNK7c78bLwvsdeMH5-21" value="管线层" style="swimlane;html=1;startSize=71;horizontal=0;" parent="dNxyNK7c78bLwvsdeMH5-19" vertex="1">
          <mxGeometry x="20" y="70" width="500" height="150" as="geometry" />
        </mxCell>
        <mxCell id="dNxyNK7c78bLwvsdeMH5-22" value="架构层" style="swimlane;html=1;startSize=71;horizontal=0;" parent="dNxyNK7c78bLwvsdeMH5-19" vertex="1">
          <mxGeometry x="20" y="220" width="500" height="80" as="geometry" />
        </mxCell>
        <mxCell id="dK3k0ItTwGgipWkgGngL-2" value="GUI" style="rounded=0;whiteSpace=wrap;html=1;shadow=1;" vertex="1" parent="dNxyNK7c78bLwvsdeMH5-22">
          <mxGeometry x="80" y="20" width="70" height="40" as="geometry" />
        </mxCell>
        <mxCell id="dK3k0ItTwGgipWkgGngL-4" value="GPU" style="rounded=0;whiteSpace=wrap;html=1;shadow=1;" vertex="1" parent="dNxyNK7c78bLwvsdeMH5-22">
          <mxGeometry x="160" y="20" width="70" height="40" as="geometry" />
        </mxCell>
        <mxCell id="dK3k0ItTwGgipWkgGngL-5" value="3D" style="rounded=0;whiteSpace=wrap;html=1;shadow=1;" vertex="1" parent="dNxyNK7c78bLwvsdeMH5-22">
          <mxGeometry x="240" y="20" width="70" height="40" as="geometry" />
        </mxCell>
        <mxCell id="dK3k0ItTwGgipWkgGngL-6" value="I/O" style="rounded=0;whiteSpace=wrap;html=1;shadow=1;" vertex="1" parent="dNxyNK7c78bLwvsdeMH5-22">
          <mxGeometry x="320" y="20" width="70" height="40" as="geometry" />
        </mxCell>
        <mxCell id="dK3k0ItTwGgipWkgGngL-7" value="math" style="rounded=0;whiteSpace=wrap;html=1;shadow=1;" vertex="1" parent="dNxyNK7c78bLwvsdeMH5-22">
          <mxGeometry x="400" y="20" width="70" height="40" as="geometry" />
        </mxCell>
        <mxCell id="dK3k0ItTwGgipWkgGngL-12" value="" style="rounded=0;whiteSpace=wrap;html=1;movable=1;resizable=1;rotatable=1;deletable=1;editable=1;locked=0;connectable=1;" vertex="1" parent="1">
          <mxGeometry x="80" y="720" width="90" height="240" as="geometry" />
        </mxCell>
        <mxCell id="dK3k0ItTwGgipWkgGngL-13" value="" style="endArrow=none;html=1;rounded=0;exitX=-0.006;exitY=0.121;exitDx=0;exitDy=0;exitPerimeter=0;entryX=1;entryY=0.121;entryDx=0;entryDy=0;entryPerimeter=0;movable=1;resizable=1;rotatable=1;deletable=1;editable=1;locked=0;connectable=1;strokeWidth=1;" edge="1" parent="1" source="dK3k0ItTwGgipWkgGngL-12" target="dK3k0ItTwGgipWkgGngL-12">
          <mxGeometry width="50" height="50" relative="1" as="geometry">
            <mxPoint x="460" y="708.6355555555556" as="sourcePoint" />
            <mxPoint x="510" y="758.6355555555556" as="targetPoint" />
          </mxGeometry>
        </mxCell>
        <mxCell id="dK3k0ItTwGgipWkgGngL-14" value="Input Data" style="text;html=1;strokeColor=none;fillColor=none;align=center;verticalAlign=middle;whiteSpace=wrap;rounded=0;movable=1;resizable=1;rotatable=1;deletable=1;editable=1;locked=0;connectable=1;" vertex="1" parent="1">
          <mxGeometry x="95" y="720" width="60" height="30" as="geometry" />
        </mxCell>
        <mxCell id="dK3k0ItTwGgipWkgGngL-15" value="" style="rounded=1;whiteSpace=wrap;html=1;" vertex="1" parent="1">
          <mxGeometry x="190" y="720" width="80" height="240" as="geometry" />
        </mxCell>
        <mxCell id="dK3k0ItTwGgipWkgGngL-17" value="" style="endArrow=none;html=1;rounded=0;exitX=-0.006;exitY=0.121;exitDx=0;exitDy=0;exitPerimeter=0;entryX=1;entryY=0.121;entryDx=0;entryDy=0;entryPerimeter=0;movable=1;resizable=1;rotatable=1;deletable=1;editable=1;locked=0;connectable=1;strokeWidth=1;" edge="1" parent="1">
          <mxGeometry width="50" height="50" relative="1" as="geometry">
            <mxPoint x="190" y="750" as="sourcePoint" />
            <mxPoint x="270" y="750" as="targetPoint" />
          </mxGeometry>
        </mxCell>
        <mxCell id="dK3k0ItTwGgipWkgGngL-18" value="Triangle Setup" style="text;html=1;strokeColor=none;fillColor=none;align=center;verticalAlign=middle;whiteSpace=wrap;rounded=0;movable=1;resizable=1;rotatable=1;deletable=1;editable=1;locked=0;connectable=1;fontSize=10;" vertex="1" parent="1">
          <mxGeometry x="200" y="720" width="60" height="30" as="geometry" />
        </mxCell>
        <mxCell id="dK3k0ItTwGgipWkgGngL-19" value="" style="rounded=0;whiteSpace=wrap;html=1;" vertex="1" parent="1">
          <mxGeometry x="90" y="760" width="30" height="170" as="geometry" />
        </mxCell>
        <mxCell id="dK3k0ItTwGgipWkgGngL-20" value="" style="rounded=0;whiteSpace=wrap;html=1;" vertex="1" parent="1">
          <mxGeometry x="130" y="760" width="30" height="170" as="geometry" />
        </mxCell>
        <mxCell id="dK3k0ItTwGgipWkgGngL-21" value="" style="rounded=0;whiteSpace=wrap;html=1;" vertex="1" parent="1">
          <mxGeometry x="130" y="760" width="30" height="10" as="geometry" />
        </mxCell>
        <mxCell id="dK3k0ItTwGgipWkgGngL-22" value="" style="rounded=0;whiteSpace=wrap;html=1;" vertex="1" parent="1">
          <mxGeometry x="130" y="770" width="30" height="10" as="geometry" />
        </mxCell>
        <mxCell id="dK3k0ItTwGgipWkgGngL-23" value="" style="rounded=0;whiteSpace=wrap;html=1;" vertex="1" parent="1">
          <mxGeometry x="130" y="780" width="30" height="10" as="geometry" />
        </mxCell>
        <mxCell id="dK3k0ItTwGgipWkgGngL-24" value="" style="rounded=0;whiteSpace=wrap;html=1;" vertex="1" parent="1">
          <mxGeometry x="130" y="790" width="30" height="10" as="geometry" />
        </mxCell>
        <mxCell id="dK3k0ItTwGgipWkgGngL-25" value="" style="rounded=0;whiteSpace=wrap;html=1;" vertex="1" parent="1">
          <mxGeometry x="130" y="800" width="30" height="10" as="geometry" />
        </mxCell>
        <mxCell id="dK3k0ItTwGgipWkgGngL-26" value="" style="endArrow=classic;html=1;rounded=0;exitX=0;exitY=0.5;exitDx=0;exitDy=0;entryX=0.333;entryY=0.118;entryDx=0;entryDy=0;entryPerimeter=0;" edge="1" parent="1" source="dK3k0ItTwGgipWkgGngL-21" target="dK3k0ItTwGgipWkgGngL-19">
          <mxGeometry width="50" height="50" relative="1" as="geometry">
            <mxPoint x="45" y="710" as="sourcePoint" />
            <mxPoint x="95" y="660" as="targetPoint" />
          </mxGeometry>
        </mxCell>
        <mxCell id="dK3k0ItTwGgipWkgGngL-27" value="" style="endArrow=classic;html=1;rounded=0;exitX=0;exitY=0.5;exitDx=0;exitDy=0;entryX=0.333;entryY=0.412;entryDx=0;entryDy=0;entryPerimeter=0;" edge="1" parent="1" source="dK3k0ItTwGgipWkgGngL-22" target="dK3k0ItTwGgipWkgGngL-19">
          <mxGeometry width="50" height="50" relative="1" as="geometry">
            <mxPoint x="460" y="790" as="sourcePoint" />
            <mxPoint x="510" y="740" as="targetPoint" />
          </mxGeometry>
        </mxCell>
        <mxCell id="dK3k0ItTwGgipWkgGngL-28" value="" style="endArrow=classic;html=1;rounded=0;exitX=0;exitY=0.5;exitDx=0;exitDy=0;entryX=0.333;entryY=0.706;entryDx=0;entryDy=0;entryPerimeter=0;" edge="1" parent="1" source="dK3k0ItTwGgipWkgGngL-23" target="dK3k0ItTwGgipWkgGngL-19">
          <mxGeometry width="50" height="50" relative="1" as="geometry">
            <mxPoint x="360" y="820" as="sourcePoint" />
            <mxPoint x="410" y="770" as="targetPoint" />
          </mxGeometry>
        </mxCell>
        <mxCell id="dK3k0ItTwGgipWkgGngL-29" value="Vertices" style="text;html=1;strokeColor=none;fillColor=none;align=center;verticalAlign=middle;whiteSpace=wrap;rounded=0;fontSize=8;" vertex="1" parent="1">
          <mxGeometry x="75" y="930" width="60" height="30" as="geometry" />
        </mxCell>
        <mxCell id="dK3k0ItTwGgipWkgGngL-31" value="Indices" style="text;html=1;strokeColor=none;fillColor=none;align=center;verticalAlign=middle;whiteSpace=wrap;rounded=0;fontSize=8;" vertex="1" parent="1">
          <mxGeometry x="115" y="930" width="60" height="30" as="geometry" />
        </mxCell>
        <mxCell id="dK3k0ItTwGgipWkgGngL-32" value="All threads" style="rounded=1;whiteSpace=wrap;html=1;" vertex="1" parent="1">
          <mxGeometry x="200" y="755" width="60" height="195" as="geometry" />
        </mxCell>
        <mxCell id="dK3k0ItTwGgipWkgGngL-34" value="" style="rounded=0;whiteSpace=wrap;html=1;movable=1;resizable=1;rotatable=1;deletable=1;editable=1;locked=0;connectable=1;" vertex="1" parent="1">
          <mxGeometry x="290.54" y="720" width="59.46" height="240" as="geometry" />
        </mxCell>
        <mxCell id="dK3k0ItTwGgipWkgGngL-35" value="" style="endArrow=none;html=1;rounded=0;exitX=-0.006;exitY=0.121;exitDx=0;exitDy=0;exitPerimeter=0;entryX=1;entryY=0.121;entryDx=0;entryDy=0;entryPerimeter=0;movable=1;resizable=1;rotatable=1;deletable=1;editable=1;locked=0;connectable=1;strokeWidth=1;" edge="1" parent="1" source="dK3k0ItTwGgipWkgGngL-34" target="dK3k0ItTwGgipWkgGngL-34">
          <mxGeometry width="50" height="50" relative="1" as="geometry">
            <mxPoint x="670.54" y="708.6355555555556" as="sourcePoint" />
            <mxPoint x="720.54" y="758.6355555555556" as="targetPoint" />
          </mxGeometry>
        </mxCell>
        <mxCell id="dK3k0ItTwGgipWkgGngL-36" value="Triangle data" style="text;html=1;strokeColor=none;fillColor=none;align=center;verticalAlign=middle;whiteSpace=wrap;rounded=0;movable=1;resizable=1;rotatable=1;deletable=1;editable=1;locked=0;connectable=1;fontSize=8;" vertex="1" parent="1">
          <mxGeometry x="290" y="720" width="60" height="30" as="geometry" />
        </mxCell>
        <mxCell id="dK3k0ItTwGgipWkgGngL-38" value="" style="rounded=0;whiteSpace=wrap;html=1;" vertex="1" parent="1">
          <mxGeometry x="297" y="755" width="46" height="195" as="geometry" />
        </mxCell>
        <mxCell id="dK3k0ItTwGgipWkgGngL-55" style="edgeStyle=orthogonalEdgeStyle;rounded=0;orthogonalLoop=1;jettySize=auto;html=1;exitX=1;exitY=0.5;exitDx=0;exitDy=0;entryX=0;entryY=0.5;entryDx=0;entryDy=0;" edge="1" parent="1" source="dK3k0ItTwGgipWkgGngL-40" target="dK3k0ItTwGgipWkgGngL-50">
          <mxGeometry relative="1" as="geometry" />
        </mxCell>
        <mxCell id="dK3k0ItTwGgipWkgGngL-40" value="&lt;font style=&quot;font-size: 8px;&quot;&gt;tris batch&lt;/font&gt;" style="rounded=0;whiteSpace=wrap;html=1;" vertex="1" parent="1">
          <mxGeometry x="297.27" y="755" width="46" height="25" as="geometry" />
        </mxCell>
        <mxCell id="dK3k0ItTwGgipWkgGngL-56" style="edgeStyle=orthogonalEdgeStyle;rounded=0;orthogonalLoop=1;jettySize=auto;html=1;entryX=0;entryY=0.5;entryDx=0;entryDy=0;" edge="1" parent="1" source="dK3k0ItTwGgipWkgGngL-41" target="dK3k0ItTwGgipWkgGngL-51">
          <mxGeometry relative="1" as="geometry" />
        </mxCell>
        <mxCell id="dK3k0ItTwGgipWkgGngL-41" value="" style="rounded=0;whiteSpace=wrap;html=1;" vertex="1" parent="1">
          <mxGeometry x="297" y="780" width="46" height="25" as="geometry" />
        </mxCell>
        <mxCell id="dK3k0ItTwGgipWkgGngL-57" style="edgeStyle=orthogonalEdgeStyle;rounded=0;orthogonalLoop=1;jettySize=auto;html=1;exitX=1;exitY=0.5;exitDx=0;exitDy=0;entryX=0;entryY=0.5;entryDx=0;entryDy=0;" edge="1" parent="1" source="dK3k0ItTwGgipWkgGngL-42" target="dK3k0ItTwGgipWkgGngL-52">
          <mxGeometry relative="1" as="geometry">
            <Array as="points">
              <mxPoint x="363" y="818" />
              <mxPoint x="363" y="840" />
            </Array>
          </mxGeometry>
        </mxCell>
        <mxCell id="dK3k0ItTwGgipWkgGngL-42" value="" style="rounded=0;whiteSpace=wrap;html=1;" vertex="1" parent="1">
          <mxGeometry x="297" y="805" width="46" height="25" as="geometry" />
        </mxCell>
        <mxCell id="dK3k0ItTwGgipWkgGngL-43" value="" style="rounded=0;whiteSpace=wrap;html=1;" vertex="1" parent="1">
          <mxGeometry x="297" y="830" width="46" height="25" as="geometry" />
        </mxCell>
        <mxCell id="dK3k0ItTwGgipWkgGngL-44" value="" style="rounded=0;whiteSpace=wrap;html=1;" vertex="1" parent="1">
          <mxGeometry x="297" y="855" width="46" height="25" as="geometry" />
        </mxCell>
        <mxCell id="dK3k0ItTwGgipWkgGngL-45" value="" style="rounded=0;whiteSpace=wrap;html=1;" vertex="1" parent="1">
          <mxGeometry x="297" y="880" width="46" height="25" as="geometry" />
        </mxCell>
        <mxCell id="dK3k0ItTwGgipWkgGngL-46" value="Clip&lt;br&gt;Subtri" style="text;html=1;strokeColor=none;fillColor=none;align=center;verticalAlign=middle;whiteSpace=wrap;rounded=0;fontSize=8;" vertex="1" parent="1">
          <mxGeometry x="290" y="910" width="60" height="30" as="geometry" />
        </mxCell>
        <mxCell id="dK3k0ItTwGgipWkgGngL-47" value="" style="rounded=1;whiteSpace=wrap;html=1;" vertex="1" parent="1">
          <mxGeometry x="374" y="720" width="80" height="240" as="geometry" />
        </mxCell>
        <mxCell id="dK3k0ItTwGgipWkgGngL-48" value="" style="endArrow=none;html=1;rounded=0;exitX=-0.006;exitY=0.121;exitDx=0;exitDy=0;exitPerimeter=0;entryX=1;entryY=0.121;entryDx=0;entryDy=0;entryPerimeter=0;movable=1;resizable=1;rotatable=1;deletable=1;editable=1;locked=0;connectable=1;strokeWidth=1;" edge="1" parent="1">
          <mxGeometry width="50" height="50" relative="1" as="geometry">
            <mxPoint x="374" y="750" as="sourcePoint" />
            <mxPoint x="454" y="750" as="targetPoint" />
          </mxGeometry>
        </mxCell>
        <mxCell id="dK3k0ItTwGgipWkgGngL-49" value="Bin Raster" style="text;html=1;strokeColor=none;fillColor=none;align=center;verticalAlign=middle;whiteSpace=wrap;rounded=0;movable=1;resizable=1;rotatable=1;deletable=1;editable=1;locked=0;connectable=1;fontSize=10;" vertex="1" parent="1">
          <mxGeometry x="384" y="720" width="60" height="30" as="geometry" />
        </mxCell>
        <mxCell id="dK3k0ItTwGgipWkgGngL-50" value="CTA 0" style="rounded=1;whiteSpace=wrap;html=1;" vertex="1" parent="1">
          <mxGeometry x="379" y="755" width="70" height="25" as="geometry" />
        </mxCell>
        <mxCell id="dK3k0ItTwGgipWkgGngL-51" value="CTA 1" style="rounded=1;whiteSpace=wrap;html=1;" vertex="1" parent="1">
          <mxGeometry x="379" y="790" width="70" height="25" as="geometry" />
        </mxCell>
        <mxCell id="dK3k0ItTwGgipWkgGngL-52" value="CTA 2" style="rounded=1;whiteSpace=wrap;html=1;" vertex="1" parent="1">
          <mxGeometry x="379" y="827.5" width="70" height="25" as="geometry" />
        </mxCell>
        <mxCell id="dK3k0ItTwGgipWkgGngL-53" value="CTA n" style="rounded=1;whiteSpace=wrap;html=1;" vertex="1" parent="1">
          <mxGeometry x="379" y="925" width="70" height="25" as="geometry" />
        </mxCell>
        <mxCell id="dK3k0ItTwGgipWkgGngL-54" value="..." style="text;html=1;strokeColor=none;fillColor=none;align=center;verticalAlign=middle;whiteSpace=wrap;rounded=0;" vertex="1" parent="1">
          <mxGeometry x="384" y="870" width="60" height="30" as="geometry" />
        </mxCell>
        <mxCell id="dK3k0ItTwGgipWkgGngL-58" value="" style="rounded=1;whiteSpace=wrap;html=1;" vertex="1" parent="1">
          <mxGeometry x="540" y="720" width="80" height="240" as="geometry" />
        </mxCell>
        <mxCell id="dK3k0ItTwGgipWkgGngL-59" value="" style="endArrow=none;html=1;rounded=0;exitX=-0.006;exitY=0.121;exitDx=0;exitDy=0;exitPerimeter=0;entryX=1;entryY=0.121;entryDx=0;entryDy=0;entryPerimeter=0;movable=1;resizable=1;rotatable=1;deletable=1;editable=1;locked=0;connectable=1;strokeWidth=1;" edge="1" parent="1">
          <mxGeometry width="50" height="50" relative="1" as="geometry">
            <mxPoint x="540" y="750" as="sourcePoint" />
            <mxPoint x="620" y="750" as="targetPoint" />
          </mxGeometry>
        </mxCell>
        <mxCell id="dK3k0ItTwGgipWkgGngL-62" value="" style="rounded=0;whiteSpace=wrap;html=1;movable=1;resizable=1;rotatable=1;deletable=1;editable=1;locked=0;connectable=1;" vertex="1" parent="1">
          <mxGeometry x="470.54" y="720" width="59.46" height="240" as="geometry" />
        </mxCell>
        <mxCell id="dK3k0ItTwGgipWkgGngL-63" value="" style="endArrow=none;html=1;rounded=0;exitX=-0.006;exitY=0.121;exitDx=0;exitDy=0;exitPerimeter=0;entryX=1;entryY=0.121;entryDx=0;entryDy=0;entryPerimeter=0;movable=1;resizable=1;rotatable=1;deletable=1;editable=1;locked=0;connectable=1;strokeWidth=1;" edge="1" parent="1" source="dK3k0ItTwGgipWkgGngL-62" target="dK3k0ItTwGgipWkgGngL-62">
          <mxGeometry width="50" height="50" relative="1" as="geometry">
            <mxPoint x="850.54" y="708.6355555555556" as="sourcePoint" />
            <mxPoint x="900.54" y="758.6355555555556" as="targetPoint" />
          </mxGeometry>
        </mxCell>
        <mxCell id="dK3k0ItTwGgipWkgGngL-64" value="Bin queue" style="text;html=1;strokeColor=none;fillColor=none;align=center;verticalAlign=middle;whiteSpace=wrap;rounded=0;movable=1;resizable=1;rotatable=1;deletable=1;editable=1;locked=0;connectable=1;fontSize=8;" vertex="1" parent="1">
          <mxGeometry x="470" y="720" width="60" height="30" as="geometry" />
        </mxCell>
        <mxCell id="dK3k0ItTwGgipWkgGngL-65" value="Coarse Raster" style="text;html=1;strokeColor=none;fillColor=none;align=center;verticalAlign=middle;whiteSpace=wrap;rounded=0;movable=1;resizable=1;rotatable=1;deletable=1;editable=1;locked=0;connectable=1;fontSize=10;" vertex="1" parent="1">
          <mxGeometry x="550" y="720" width="60" height="30" as="geometry" />
        </mxCell>
        <mxCell id="dK3k0ItTwGgipWkgGngL-66" value="CTA 0" style="rounded=1;whiteSpace=wrap;html=1;" vertex="1" parent="1">
          <mxGeometry x="545" y="755" width="70" height="25" as="geometry" />
        </mxCell>
        <mxCell id="dK3k0ItTwGgipWkgGngL-67" value="CTA 1" style="rounded=1;whiteSpace=wrap;html=1;" vertex="1" parent="1">
          <mxGeometry x="545" y="790" width="70" height="25" as="geometry" />
        </mxCell>
        <mxCell id="dK3k0ItTwGgipWkgGngL-68" value="CTA 2" style="rounded=1;whiteSpace=wrap;html=1;" vertex="1" parent="1">
          <mxGeometry x="545" y="827.5" width="70" height="25" as="geometry" />
        </mxCell>
        <mxCell id="dK3k0ItTwGgipWkgGngL-69" value="CTA n" style="rounded=1;whiteSpace=wrap;html=1;" vertex="1" parent="1">
          <mxGeometry x="545" y="925" width="70" height="25" as="geometry" />
        </mxCell>
        <mxCell id="dK3k0ItTwGgipWkgGngL-70" value="..." style="text;html=1;strokeColor=none;fillColor=none;align=center;verticalAlign=middle;whiteSpace=wrap;rounded=0;" vertex="1" parent="1">
          <mxGeometry x="550" y="870" width="60" height="30" as="geometry" />
        </mxCell>
        <mxCell id="dK3k0ItTwGgipWkgGngL-86" value="" style="group" vertex="1" connectable="0" parent="1">
          <mxGeometry x="485.27" y="752.5" width="30" height="30" as="geometry" />
        </mxCell>
        <mxCell id="dK3k0ItTwGgipWkgGngL-71" value="" style="rounded=0;whiteSpace=wrap;html=1;container=0;" vertex="1" parent="dK3k0ItTwGgipWkgGngL-86">
          <mxGeometry width="30" height="30" as="geometry" />
        </mxCell>
        <mxCell id="dK3k0ItTwGgipWkgGngL-72" value="" style="rounded=0;whiteSpace=wrap;html=1;container=0;" vertex="1" parent="dK3k0ItTwGgipWkgGngL-86">
          <mxGeometry width="10" height="10" as="geometry" />
        </mxCell>
        <mxCell id="dK3k0ItTwGgipWkgGngL-73" value="" style="rounded=0;whiteSpace=wrap;html=1;container=0;" vertex="1" parent="dK3k0ItTwGgipWkgGngL-86">
          <mxGeometry x="10.000000000000028" width="10" height="10" as="geometry" />
        </mxCell>
        <mxCell id="dK3k0ItTwGgipWkgGngL-74" value="" style="rounded=0;whiteSpace=wrap;html=1;container=0;fillColor=#ba9ce0;" vertex="1" parent="dK3k0ItTwGgipWkgGngL-86">
          <mxGeometry x="19.99999999999997" width="10" height="10" as="geometry" />
        </mxCell>
        <mxCell id="dK3k0ItTwGgipWkgGngL-75" value="" style="rounded=0;whiteSpace=wrap;html=1;container=0;" vertex="1" parent="dK3k0ItTwGgipWkgGngL-86">
          <mxGeometry y="10.000000000000028" width="10" height="10" as="geometry" />
        </mxCell>
        <mxCell id="dK3k0ItTwGgipWkgGngL-76" value="" style="rounded=0;whiteSpace=wrap;html=1;container=0;" vertex="1" parent="dK3k0ItTwGgipWkgGngL-86">
          <mxGeometry x="10.000000000000028" y="10.000000000000028" width="10" height="10" as="geometry" />
        </mxCell>
        <mxCell id="dK3k0ItTwGgipWkgGngL-77" value="" style="rounded=0;whiteSpace=wrap;html=1;container=0;fillColor=#f58787;" vertex="1" parent="dK3k0ItTwGgipWkgGngL-86">
          <mxGeometry x="19.99999999999997" y="10.000000000000028" width="10" height="10" as="geometry" />
        </mxCell>
        <mxCell id="dK3k0ItTwGgipWkgGngL-78" value="" style="rounded=0;whiteSpace=wrap;html=1;container=0;" vertex="1" parent="dK3k0ItTwGgipWkgGngL-86">
          <mxGeometry y="19.999999999999886" width="10" height="10" as="geometry" />
        </mxCell>
        <mxCell id="dK3k0ItTwGgipWkgGngL-79" value="" style="rounded=0;whiteSpace=wrap;html=1;container=0;" vertex="1" parent="dK3k0ItTwGgipWkgGngL-86">
          <mxGeometry x="10.000000000000028" y="19.999999999999886" width="10" height="10" as="geometry" />
        </mxCell>
        <mxCell id="dK3k0ItTwGgipWkgGngL-80" value="" style="rounded=0;whiteSpace=wrap;html=1;container=0;" vertex="1" parent="dK3k0ItTwGgipWkgGngL-86">
          <mxGeometry x="19.99999999999997" y="19.999999999999886" width="10" height="10" as="geometry" />
        </mxCell>
        <mxCell id="dK3k0ItTwGgipWkgGngL-99" value="" style="group" vertex="1" connectable="0" parent="1">
          <mxGeometry x="485" y="787.5" width="30" height="30" as="geometry" />
        </mxCell>
        <mxCell id="dK3k0ItTwGgipWkgGngL-100" value="" style="rounded=0;whiteSpace=wrap;html=1;container=0;" vertex="1" parent="dK3k0ItTwGgipWkgGngL-99">
          <mxGeometry width="30" height="30" as="geometry" />
        </mxCell>
        <mxCell id="dK3k0ItTwGgipWkgGngL-101" value="" style="rounded=0;whiteSpace=wrap;html=1;container=0;" vertex="1" parent="dK3k0ItTwGgipWkgGngL-99">
          <mxGeometry width="10" height="10" as="geometry" />
        </mxCell>
        <mxCell id="dK3k0ItTwGgipWkgGngL-102" value="" style="rounded=0;whiteSpace=wrap;html=1;container=0;" vertex="1" parent="dK3k0ItTwGgipWkgGngL-99">
          <mxGeometry x="10.000000000000028" width="10" height="10" as="geometry" />
        </mxCell>
        <mxCell id="dK3k0ItTwGgipWkgGngL-103" value="" style="rounded=0;whiteSpace=wrap;html=1;container=0;fillColor=#ba9ce0;" vertex="1" parent="dK3k0ItTwGgipWkgGngL-99">
          <mxGeometry x="19.99999999999997" width="10" height="10" as="geometry" />
        </mxCell>
        <mxCell id="dK3k0ItTwGgipWkgGngL-104" value="" style="rounded=0;whiteSpace=wrap;html=1;container=0;" vertex="1" parent="dK3k0ItTwGgipWkgGngL-99">
          <mxGeometry y="10.000000000000028" width="10" height="10" as="geometry" />
        </mxCell>
        <mxCell id="dK3k0ItTwGgipWkgGngL-105" value="" style="rounded=0;whiteSpace=wrap;html=1;container=0;" vertex="1" parent="dK3k0ItTwGgipWkgGngL-99">
          <mxGeometry x="10.000000000000028" y="10.000000000000028" width="10" height="10" as="geometry" />
        </mxCell>
        <mxCell id="dK3k0ItTwGgipWkgGngL-106" value="" style="rounded=0;whiteSpace=wrap;html=1;container=0;fillColor=#f58787;" vertex="1" parent="dK3k0ItTwGgipWkgGngL-99">
          <mxGeometry x="19.99999999999997" y="10.000000000000028" width="10" height="10" as="geometry" />
        </mxCell>
        <mxCell id="dK3k0ItTwGgipWkgGngL-107" value="" style="rounded=0;whiteSpace=wrap;html=1;container=0;" vertex="1" parent="dK3k0ItTwGgipWkgGngL-99">
          <mxGeometry y="19.999999999999886" width="10" height="10" as="geometry" />
        </mxCell>
        <mxCell id="dK3k0ItTwGgipWkgGngL-108" value="" style="rounded=0;whiteSpace=wrap;html=1;container=0;" vertex="1" parent="dK3k0ItTwGgipWkgGngL-99">
          <mxGeometry x="10.000000000000028" y="19.999999999999886" width="10" height="10" as="geometry" />
        </mxCell>
        <mxCell id="dK3k0ItTwGgipWkgGngL-109" value="" style="rounded=0;whiteSpace=wrap;html=1;container=0;" vertex="1" parent="dK3k0ItTwGgipWkgGngL-99">
          <mxGeometry x="19.99999999999997" y="19.999999999999886" width="10" height="10" as="geometry" />
        </mxCell>
        <mxCell id="dK3k0ItTwGgipWkgGngL-122" value="" style="group" vertex="1" connectable="0" parent="1">
          <mxGeometry x="485" y="825" width="30" height="30" as="geometry" />
        </mxCell>
        <mxCell id="dK3k0ItTwGgipWkgGngL-123" value="" style="rounded=0;whiteSpace=wrap;html=1;container=0;" vertex="1" parent="dK3k0ItTwGgipWkgGngL-122">
          <mxGeometry width="30" height="30" as="geometry" />
        </mxCell>
        <mxCell id="dK3k0ItTwGgipWkgGngL-124" value="" style="rounded=0;whiteSpace=wrap;html=1;container=0;" vertex="1" parent="dK3k0ItTwGgipWkgGngL-122">
          <mxGeometry width="10" height="10" as="geometry" />
        </mxCell>
        <mxCell id="dK3k0ItTwGgipWkgGngL-125" value="" style="rounded=0;whiteSpace=wrap;html=1;container=0;" vertex="1" parent="dK3k0ItTwGgipWkgGngL-122">
          <mxGeometry x="10.000000000000028" width="10" height="10" as="geometry" />
        </mxCell>
        <mxCell id="dK3k0ItTwGgipWkgGngL-126" value="" style="rounded=0;whiteSpace=wrap;html=1;container=0;fillColor=#ba9ce0;" vertex="1" parent="dK3k0ItTwGgipWkgGngL-122">
          <mxGeometry x="19.99999999999997" width="10" height="10" as="geometry" />
        </mxCell>
        <mxCell id="dK3k0ItTwGgipWkgGngL-127" value="" style="rounded=0;whiteSpace=wrap;html=1;container=0;" vertex="1" parent="dK3k0ItTwGgipWkgGngL-122">
          <mxGeometry y="10.000000000000028" width="10" height="10" as="geometry" />
        </mxCell>
        <mxCell id="dK3k0ItTwGgipWkgGngL-128" value="" style="rounded=0;whiteSpace=wrap;html=1;container=0;" vertex="1" parent="dK3k0ItTwGgipWkgGngL-122">
          <mxGeometry x="10.000000000000028" y="10.000000000000028" width="10" height="10" as="geometry" />
        </mxCell>
        <mxCell id="dK3k0ItTwGgipWkgGngL-129" value="" style="rounded=0;whiteSpace=wrap;html=1;container=0;fillColor=#f58787;" vertex="1" parent="dK3k0ItTwGgipWkgGngL-122">
          <mxGeometry x="19.99999999999997" y="10.000000000000028" width="10" height="10" as="geometry" />
        </mxCell>
        <mxCell id="dK3k0ItTwGgipWkgGngL-130" value="" style="rounded=0;whiteSpace=wrap;html=1;container=0;" vertex="1" parent="dK3k0ItTwGgipWkgGngL-122">
          <mxGeometry y="19.999999999999886" width="10" height="10" as="geometry" />
        </mxCell>
        <mxCell id="dK3k0ItTwGgipWkgGngL-131" value="" style="rounded=0;whiteSpace=wrap;html=1;container=0;" vertex="1" parent="dK3k0ItTwGgipWkgGngL-122">
          <mxGeometry x="10.000000000000028" y="19.999999999999886" width="10" height="10" as="geometry" />
        </mxCell>
        <mxCell id="dK3k0ItTwGgipWkgGngL-132" value="" style="rounded=0;whiteSpace=wrap;html=1;container=0;" vertex="1" parent="dK3k0ItTwGgipWkgGngL-122">
          <mxGeometry x="19.99999999999997" y="19.999999999999886" width="10" height="10" as="geometry" />
        </mxCell>
        <mxCell id="dK3k0ItTwGgipWkgGngL-133" value="" style="group" vertex="1" connectable="0" parent="1">
          <mxGeometry x="485" y="922.5" width="30" height="30" as="geometry" />
        </mxCell>
        <mxCell id="dK3k0ItTwGgipWkgGngL-134" value="" style="rounded=0;whiteSpace=wrap;html=1;container=0;" vertex="1" parent="dK3k0ItTwGgipWkgGngL-133">
          <mxGeometry width="30" height="30" as="geometry" />
        </mxCell>
        <mxCell id="dK3k0ItTwGgipWkgGngL-135" value="" style="rounded=0;whiteSpace=wrap;html=1;container=0;" vertex="1" parent="dK3k0ItTwGgipWkgGngL-133">
          <mxGeometry width="10" height="10" as="geometry" />
        </mxCell>
        <mxCell id="dK3k0ItTwGgipWkgGngL-136" value="" style="rounded=0;whiteSpace=wrap;html=1;container=0;" vertex="1" parent="dK3k0ItTwGgipWkgGngL-133">
          <mxGeometry x="10.000000000000028" width="10" height="10" as="geometry" />
        </mxCell>
        <mxCell id="dK3k0ItTwGgipWkgGngL-137" value="" style="rounded=0;whiteSpace=wrap;html=1;container=0;fillColor=#ba9ce0;" vertex="1" parent="dK3k0ItTwGgipWkgGngL-133">
          <mxGeometry x="19.99999999999997" width="10" height="10" as="geometry" />
        </mxCell>
        <mxCell id="dK3k0ItTwGgipWkgGngL-138" value="" style="rounded=0;whiteSpace=wrap;html=1;container=0;" vertex="1" parent="dK3k0ItTwGgipWkgGngL-133">
          <mxGeometry y="10.000000000000028" width="10" height="10" as="geometry" />
        </mxCell>
        <mxCell id="dK3k0ItTwGgipWkgGngL-139" value="" style="rounded=0;whiteSpace=wrap;html=1;container=0;" vertex="1" parent="dK3k0ItTwGgipWkgGngL-133">
          <mxGeometry x="10.000000000000028" y="10.000000000000028" width="10" height="10" as="geometry" />
        </mxCell>
        <mxCell id="dK3k0ItTwGgipWkgGngL-140" value="" style="rounded=0;whiteSpace=wrap;html=1;container=0;fillColor=#f58787;" vertex="1" parent="dK3k0ItTwGgipWkgGngL-133">
          <mxGeometry x="19.99999999999997" y="10.000000000000028" width="10" height="10" as="geometry" />
        </mxCell>
        <mxCell id="dK3k0ItTwGgipWkgGngL-141" value="" style="rounded=0;whiteSpace=wrap;html=1;container=0;" vertex="1" parent="dK3k0ItTwGgipWkgGngL-133">
          <mxGeometry y="19.999999999999886" width="10" height="10" as="geometry" />
        </mxCell>
        <mxCell id="dK3k0ItTwGgipWkgGngL-142" value="" style="rounded=0;whiteSpace=wrap;html=1;container=0;" vertex="1" parent="dK3k0ItTwGgipWkgGngL-133">
          <mxGeometry x="10.000000000000028" y="19.999999999999886" width="10" height="10" as="geometry" />
        </mxCell>
        <mxCell id="dK3k0ItTwGgipWkgGngL-143" value="" style="rounded=0;whiteSpace=wrap;html=1;container=0;" vertex="1" parent="dK3k0ItTwGgipWkgGngL-133">
          <mxGeometry x="19.99999999999997" y="19.999999999999886" width="10" height="10" as="geometry" />
        </mxCell>
        <mxCell id="dK3k0ItTwGgipWkgGngL-193" value="" style="rounded=0;whiteSpace=wrap;html=1;movable=1;resizable=1;rotatable=1;deletable=1;editable=1;locked=0;connectable=1;" vertex="1" parent="1">
          <mxGeometry x="630.54" y="720" width="79.46" height="240" as="geometry" />
        </mxCell>
        <mxCell id="dK3k0ItTwGgipWkgGngL-194" value="" style="endArrow=none;html=1;rounded=0;exitX=-0.006;exitY=0.121;exitDx=0;exitDy=0;exitPerimeter=0;entryX=1;entryY=0.121;entryDx=0;entryDy=0;entryPerimeter=0;movable=1;resizable=1;rotatable=1;deletable=1;editable=1;locked=0;connectable=1;strokeWidth=1;" edge="1" parent="1" source="dK3k0ItTwGgipWkgGngL-193" target="dK3k0ItTwGgipWkgGngL-193">
          <mxGeometry width="50" height="50" relative="1" as="geometry">
            <mxPoint x="1010.54" y="708.6355555555556" as="sourcePoint" />
            <mxPoint x="1060.54" y="758.6355555555556" as="targetPoint" />
          </mxGeometry>
        </mxCell>
        <mxCell id="dK3k0ItTwGgipWkgGngL-195" value="tile queues" style="text;html=1;strokeColor=none;fillColor=none;align=center;verticalAlign=middle;whiteSpace=wrap;rounded=0;movable=1;resizable=1;rotatable=1;deletable=1;editable=1;locked=0;connectable=1;fontSize=8;" vertex="1" parent="1">
          <mxGeometry x="640.27" y="720" width="60" height="30" as="geometry" />
        </mxCell>
        <mxCell id="dK3k0ItTwGgipWkgGngL-196" value="" style="group" vertex="1" connectable="0" parent="1">
          <mxGeometry x="640" y="810" width="60" height="60" as="geometry" />
        </mxCell>
        <mxCell id="dK3k0ItTwGgipWkgGngL-171" value="" style="group" vertex="1" connectable="0" parent="dK3k0ItTwGgipWkgGngL-196">
          <mxGeometry width="60" height="60" as="geometry" />
        </mxCell>
        <mxCell id="dK3k0ItTwGgipWkgGngL-158" value="" style="rounded=0;whiteSpace=wrap;html=1;container=0;" vertex="1" parent="dK3k0ItTwGgipWkgGngL-171">
          <mxGeometry width="60" height="60" as="geometry" />
        </mxCell>
        <mxCell id="dK3k0ItTwGgipWkgGngL-159" value="" style="rounded=0;whiteSpace=wrap;html=1;container=0;" vertex="1" parent="dK3k0ItTwGgipWkgGngL-171">
          <mxGeometry width="20" height="20" as="geometry" />
        </mxCell>
        <mxCell id="dK3k0ItTwGgipWkgGngL-160" value="" style="rounded=0;whiteSpace=wrap;html=1;container=0;" vertex="1" parent="dK3k0ItTwGgipWkgGngL-171">
          <mxGeometry x="20.000000000000057" width="20" height="20" as="geometry" />
        </mxCell>
        <mxCell id="dK3k0ItTwGgipWkgGngL-161" value="" style="rounded=0;whiteSpace=wrap;html=1;container=0;fillColor=#BA9CE0;" vertex="1" parent="dK3k0ItTwGgipWkgGngL-171">
          <mxGeometry x="39.99999999999994" width="20" height="20" as="geometry" />
        </mxCell>
        <mxCell id="dK3k0ItTwGgipWkgGngL-162" value="" style="rounded=0;whiteSpace=wrap;html=1;container=0;" vertex="1" parent="dK3k0ItTwGgipWkgGngL-171">
          <mxGeometry y="20" width="20" height="20" as="geometry" />
        </mxCell>
        <mxCell id="dK3k0ItTwGgipWkgGngL-163" value="" style="rounded=0;whiteSpace=wrap;html=1;container=0;" vertex="1" parent="dK3k0ItTwGgipWkgGngL-171">
          <mxGeometry x="20.000000000000057" y="20" width="20" height="20" as="geometry" />
        </mxCell>
        <mxCell id="dK3k0ItTwGgipWkgGngL-164" value="" style="rounded=0;whiteSpace=wrap;html=1;container=0;fillColor=#F58787;" vertex="1" parent="dK3k0ItTwGgipWkgGngL-171">
          <mxGeometry x="39.99999999999994" y="20" width="20" height="20" as="geometry" />
        </mxCell>
        <mxCell id="dK3k0ItTwGgipWkgGngL-165" value="" style="rounded=0;whiteSpace=wrap;html=1;container=0;" vertex="1" parent="dK3k0ItTwGgipWkgGngL-171">
          <mxGeometry y="39.99999999999977" width="20" height="20" as="geometry" />
        </mxCell>
        <mxCell id="dK3k0ItTwGgipWkgGngL-166" value="" style="rounded=0;whiteSpace=wrap;html=1;container=0;" vertex="1" parent="dK3k0ItTwGgipWkgGngL-171">
          <mxGeometry x="20.000000000000057" y="39.99999999999977" width="20" height="20" as="geometry" />
        </mxCell>
        <mxCell id="dK3k0ItTwGgipWkgGngL-167" value="" style="rounded=0;whiteSpace=wrap;html=1;container=0;" vertex="1" parent="dK3k0ItTwGgipWkgGngL-171">
          <mxGeometry x="39.99999999999994" y="39.99999999999977" width="20" height="20" as="geometry" />
        </mxCell>
        <mxCell id="dK3k0ItTwGgipWkgGngL-175" value="" style="rounded=0;whiteSpace=wrap;html=1;fillColor=#BA9CE0;" vertex="1" parent="dK3k0ItTwGgipWkgGngL-171">
          <mxGeometry x="40" width="6.666666666666666" height="6.666666666666666" as="geometry" />
        </mxCell>
        <mxCell id="dK3k0ItTwGgipWkgGngL-176" value="" style="rounded=0;whiteSpace=wrap;html=1;fillColor=#BA9CE0;" vertex="1" parent="dK3k0ItTwGgipWkgGngL-171">
          <mxGeometry x="40" y="6.666666666666666" width="6.666666666666666" height="6.666666666666666" as="geometry" />
        </mxCell>
        <mxCell id="dK3k0ItTwGgipWkgGngL-177" value="" style="rounded=0;whiteSpace=wrap;html=1;fillColor=#BA9CE0;" vertex="1" parent="dK3k0ItTwGgipWkgGngL-171">
          <mxGeometry x="40" y="13.333333333333332" width="6.666666666666666" height="6.666666666666666" as="geometry" />
        </mxCell>
        <mxCell id="dK3k0ItTwGgipWkgGngL-179" value="" style="rounded=0;whiteSpace=wrap;html=1;fillColor=#BA9CE0;" vertex="1" parent="dK3k0ItTwGgipWkgGngL-171">
          <mxGeometry x="46.666666666666664" y="6.666666666666666" width="6.666666666666666" height="6.666666666666666" as="geometry" />
        </mxCell>
        <mxCell id="dK3k0ItTwGgipWkgGngL-180" value="" style="rounded=0;whiteSpace=wrap;html=1;fillColor=#BA9CE0;" vertex="1" parent="dK3k0ItTwGgipWkgGngL-171">
          <mxGeometry x="46.666666666666664" width="6.666666666666666" height="6.666666666666666" as="geometry" />
        </mxCell>
        <mxCell id="dK3k0ItTwGgipWkgGngL-181" value="" style="rounded=0;whiteSpace=wrap;html=1;fillColor=#BA9CE0;" vertex="1" parent="dK3k0ItTwGgipWkgGngL-171">
          <mxGeometry x="53.33333333333333" width="6.666666666666666" height="6.666666666666666" as="geometry" />
        </mxCell>
        <mxCell id="dK3k0ItTwGgipWkgGngL-182" value="" style="rounded=0;whiteSpace=wrap;html=1;fillColor=#BA9CE0;" vertex="1" parent="dK3k0ItTwGgipWkgGngL-171">
          <mxGeometry x="53.33333333333333" y="6.666666666666666" width="6.666666666666666" height="6.666666666666666" as="geometry" />
        </mxCell>
        <mxCell id="dK3k0ItTwGgipWkgGngL-183" value="" style="rounded=0;whiteSpace=wrap;html=1;fillColor=#BA9CE0;" vertex="1" parent="dK3k0ItTwGgipWkgGngL-171">
          <mxGeometry x="53.33333333333333" y="13.333333333333332" width="6.666666666666666" height="6.666666666666666" as="geometry" />
        </mxCell>
        <mxCell id="dK3k0ItTwGgipWkgGngL-184" value="" style="rounded=0;whiteSpace=wrap;html=1;fillColor=#F58787;" vertex="1" parent="dK3k0ItTwGgipWkgGngL-171">
          <mxGeometry x="40" y="20" width="6.666666666666666" height="6.666666666666666" as="geometry" />
        </mxCell>
        <mxCell id="dK3k0ItTwGgipWkgGngL-185" value="" style="rounded=0;whiteSpace=wrap;html=1;fillColor=#F58787;" vertex="1" parent="dK3k0ItTwGgipWkgGngL-171">
          <mxGeometry x="46.666666666666664" y="20" width="6.666666666666666" height="6.666666666666666" as="geometry" />
        </mxCell>
        <mxCell id="dK3k0ItTwGgipWkgGngL-186" value="" style="rounded=0;whiteSpace=wrap;html=1;fillColor=#F58787;" vertex="1" parent="dK3k0ItTwGgipWkgGngL-171">
          <mxGeometry x="53.33333333333333" y="20" width="6.666666666666666" height="6.666666666666666" as="geometry" />
        </mxCell>
        <mxCell id="dK3k0ItTwGgipWkgGngL-187" value="" style="rounded=0;whiteSpace=wrap;html=1;fillColor=#F58787;" vertex="1" parent="dK3k0ItTwGgipWkgGngL-171">
          <mxGeometry x="40" y="26.666666666666664" width="6.666666666666666" height="6.666666666666666" as="geometry" />
        </mxCell>
        <mxCell id="dK3k0ItTwGgipWkgGngL-188" value="" style="rounded=0;whiteSpace=wrap;html=1;fillColor=#F58787;" vertex="1" parent="dK3k0ItTwGgipWkgGngL-171">
          <mxGeometry x="46.666666666666664" y="26.666666666666664" width="6.666666666666666" height="6.666666666666666" as="geometry" />
        </mxCell>
        <mxCell id="dK3k0ItTwGgipWkgGngL-189" value="" style="rounded=0;whiteSpace=wrap;html=1;fillColor=#F58787;" vertex="1" parent="dK3k0ItTwGgipWkgGngL-171">
          <mxGeometry x="53.33333333333333" y="26.666666666666664" width="6.666666666666666" height="6.666666666666666" as="geometry" />
        </mxCell>
        <mxCell id="dK3k0ItTwGgipWkgGngL-190" value="" style="rounded=0;whiteSpace=wrap;html=1;fillColor=#F58787;" vertex="1" parent="dK3k0ItTwGgipWkgGngL-171">
          <mxGeometry x="40" y="33.33333333333333" width="6.666666666666666" height="6.666666666666666" as="geometry" />
        </mxCell>
        <mxCell id="dK3k0ItTwGgipWkgGngL-191" value="" style="rounded=0;whiteSpace=wrap;html=1;fillColor=#F58787;" vertex="1" parent="dK3k0ItTwGgipWkgGngL-171">
          <mxGeometry x="46.666666666666664" y="33.33333333333333" width="6.666666666666666" height="6.666666666666666" as="geometry" />
        </mxCell>
        <mxCell id="dK3k0ItTwGgipWkgGngL-192" value="" style="rounded=0;whiteSpace=wrap;html=1;fillColor=#F58787;" vertex="1" parent="dK3k0ItTwGgipWkgGngL-171">
          <mxGeometry x="53.33333333333333" y="33.33333333333333" width="6.666666666666666" height="6.666666666666666" as="geometry" />
        </mxCell>
        <mxCell id="dK3k0ItTwGgipWkgGngL-178" value="" style="rounded=0;whiteSpace=wrap;html=1;fillColor=#BA9CE0;" vertex="1" parent="dK3k0ItTwGgipWkgGngL-196">
          <mxGeometry x="46.666666666666664" y="13.333333333333332" width="6.666666666666666" height="6.666666666666666" as="geometry" />
        </mxCell>
        <mxCell id="dK3k0ItTwGgipWkgGngL-204" value="" style="rounded=1;whiteSpace=wrap;html=1;" vertex="1" parent="1">
          <mxGeometry x="720" y="720" width="80" height="240" as="geometry" />
        </mxCell>
        <mxCell id="dK3k0ItTwGgipWkgGngL-205" value="" style="endArrow=none;html=1;rounded=0;exitX=-0.006;exitY=0.121;exitDx=0;exitDy=0;exitPerimeter=0;entryX=1;entryY=0.121;entryDx=0;entryDy=0;entryPerimeter=0;movable=1;resizable=1;rotatable=1;deletable=1;editable=1;locked=0;connectable=1;strokeWidth=1;" edge="1" parent="1">
          <mxGeometry width="50" height="50" relative="1" as="geometry">
            <mxPoint x="720" y="750" as="sourcePoint" />
            <mxPoint x="800" y="750" as="targetPoint" />
          </mxGeometry>
        </mxCell>
        <mxCell id="dK3k0ItTwGgipWkgGngL-206" value="Fine Raster" style="text;html=1;strokeColor=none;fillColor=none;align=center;verticalAlign=middle;whiteSpace=wrap;rounded=0;movable=1;resizable=1;rotatable=1;deletable=1;editable=1;locked=0;connectable=1;fontSize=10;" vertex="1" parent="1">
          <mxGeometry x="730" y="720" width="60" height="30" as="geometry" />
        </mxCell>
        <mxCell id="dK3k0ItTwGgipWkgGngL-207" value="" style="rounded=0;whiteSpace=wrap;html=1;movable=1;resizable=1;rotatable=1;deletable=1;editable=1;locked=0;connectable=1;" vertex="1" parent="1">
          <mxGeometry x="810.48" y="720" width="79.46" height="240" as="geometry" />
        </mxCell>
        <mxCell id="dK3k0ItTwGgipWkgGngL-208" value="" style="endArrow=none;html=1;rounded=0;exitX=-0.006;exitY=0.121;exitDx=0;exitDy=0;exitPerimeter=0;entryX=1;entryY=0.121;entryDx=0;entryDy=0;entryPerimeter=0;movable=1;resizable=1;rotatable=1;deletable=1;editable=1;locked=0;connectable=1;strokeWidth=1;" edge="1" parent="1" source="dK3k0ItTwGgipWkgGngL-207" target="dK3k0ItTwGgipWkgGngL-207">
          <mxGeometry width="50" height="50" relative="1" as="geometry">
            <mxPoint x="1190.48" y="708.6355555555556" as="sourcePoint" />
            <mxPoint x="1240.48" y="758.6355555555556" as="targetPoint" />
          </mxGeometry>
        </mxCell>
        <mxCell id="dK3k0ItTwGgipWkgGngL-209" value="Frame buffer" style="text;html=1;strokeColor=none;fillColor=none;align=center;verticalAlign=middle;whiteSpace=wrap;rounded=0;movable=1;resizable=1;rotatable=1;deletable=1;editable=1;locked=0;connectable=1;fontSize=8;" vertex="1" parent="1">
          <mxGeometry x="820.21" y="720" width="60" height="30" as="geometry" />
        </mxCell>
      </root>
    </mxGraphModel>
  </diagram>
</mxfile>
